<?xml version="1.0" encoding="utf-8"?>
<!-- Generator: Adobe Illustrator 16.0.0, SVG Export Plug-In . SVG Version: 6.00 Build 0)  -->
<!DOCTYPE svg PUBLIC "-//W3C//DTD SVG 1.1//EN" "http://www.w3.org/Graphics/SVG/1.1/DTD/svg11.dtd">
<svg version="1.1" id="Layer_1" xmlns="http://www.w3.org/2000/svg" xmlns:xlink="http://www.w3.org/1999/xlink" x="0px" y="0px"
	 width="108.5px" height="108.004px" viewBox="-15.999 0 108.5 108.004" enable-background="new -15.999 0 108.5 108.004"
	 xml:space="preserve">
<g>
	<path fill="#777777" d="M38.499,29.754c-1.656,0-3,1.343-3,3v28c0,1.657,1.344,3,3,3c1.655,0,3-1.343,3-3v-28
		C41.499,31.097,40.154,29.754,38.499,29.754z"/>
	<path fill="#777777" d="M83.005,27.561c0,0-1.414-4.242-4.244-7.07c-2.828-2.829-7.07-4.243-7.07-4.243l-8.986,8.988
		c-4.797-3.28-10.289-5.606-16.205-6.724V5.754c0,0-4-2-8-2s-8,2-8,2v12.758c-19.898,3.762-35,21.266-35,42.242
		c0,23.71,19.29,43,43,43c23.709,0,43-19.29,43-43c0-8.971-2.766-17.305-7.482-24.205L83.005,27.561z M38.499,97.754
		c-20.402,0-37-16.598-37-37c0-20.402,16.598-37,37-37c20.401,0,37,16.598,37,37C75.499,81.156,58.899,97.754,38.499,97.754z"/>
</g>
</svg>
