<?xml version="1.0" encoding="utf-8"?>
<!-- Generator: Adobe Illustrator 15.1.0, SVG Export Plug-In . SVG Version: 6.00 Build 0)  -->
<!DOCTYPE svg PUBLIC "-//W3C//DTD SVG 1.1//EN" "http://www.w3.org/Graphics/SVG/1.1/DTD/svg11.dtd">
<svg version="1.1" id="Layer_1" xmlns="http://www.w3.org/2000/svg" xmlns:xlink="http://www.w3.org/1999/xlink" x="0px" y="0px"
	 width="87.506px" height="100px" viewBox="0 0 87.506 100" enable-background="new 0 0 87.506 100" xml:space="preserve">
<path d="M43,26c-1.656,0-3,1.343-3,3v28c0,1.657,1.344,3,3,3s3-1.343,3-3V29C46,27.343,44.656,26,43,26z"/>
<path d="M87.506,23.807c0,0-1.414-4.242-4.243-7.07c-2.828-2.829-7.07-4.243-7.07-4.243l-8.988,8.988
	C62.408,18.202,56.916,15.876,51,14.758V2c0,0-4-2-8-2s-8,2-8,2v12.758C15.102,18.52,0,36.024,0,57c0,23.71,19.29,43,43,43
	s43-19.29,43-43c0-8.971-2.765-17.305-7.482-24.205L87.506,23.807z M43,94C22.598,94,6,77.402,6,57s16.598-37,37-37s37,16.598,37,37
	S63.402,94,43,94z"/>
</svg>
